<svg xmlns="http://www.w3.org/2000/svg" width="500" height="188" viewBox="0 0 500 188" version="1.1"><path d="M 110.616 10.078 C 113.280 12.741, 114.758 13.284, 121.597 14.110 C 125.944 14.635, 131.750 15.771, 134.500 16.635 C 137.250 17.499, 142.578 19.767, 146.339 21.676 C 150.100 23.584, 153.813 24.902, 154.589 24.604 C 155.365 24.306, 156 23.168, 156 22.074 C 156 20.780, 154.463 19.183, 151.607 17.510 C 149.190 16.094, 144.353 13.811, 140.857 12.437 C 137.361 11.063, 130.450 9.280, 125.500 8.474 C 120.550 7.668, 114.484 7.006, 112.019 7.004 C 107.538 7, 107.538 7, 110.616 10.078 M 160.180 32.365 C 146.500 45.943, 146.500 45.943, 148.757 48.201 C 151.013 50.458, 151.013 50.458, 164.040 37.479 C 174.471 27.085, 177.010 24.017, 176.783 22.077 C 176.627 20.745, 175.906 19.459, 175.180 19.221 C 174.454 18.982, 167.704 24.897, 160.180 32.365 M 177.228 36.270 C 173.343 40.190, 171 43.390, 171 44.777 C 171 46.241, 171.607 47, 172.779 47 C 173.757 47, 177.463 44.068, 181.015 40.485 C 186.320 35.132, 187.283 33.672, 186.414 32.295 C 185.833 31.373, 184.929 30.476, 184.407 30.302 C 183.884 30.128, 180.654 32.813, 177.228 36.270 M 180.402 55.394 C 180.078 56.238, 180.803 59.902, 182.012 63.536 C 183.221 67.169, 184.514 73.670, 184.884 77.982 C 185.457 84.645, 185.928 86.130, 188.029 87.877 C 189.388 89.008, 190.838 89.948, 191.250 89.967 C 191.662 89.985, 191.999 88.987, 191.997 87.750 C 191.996 86.513, 191.514 81.581, 190.926 76.791 C 190.339 72.001, 188.878 65.026, 187.679 61.291 C 185.921 55.813, 185.064 54.438, 183.246 54.180 C 181.911 53.990, 180.751 54.486, 180.402 55.394 M 45.538 126 C 45.979 126.825, 47.618 129.388, 49.180 131.695 C 50.742 134.002, 54.559 138.428, 57.661 141.531 C 60.763 144.633, 65.043 148.324, 67.171 149.732 C 69.299 151.140, 71.241 152.092, 71.486 151.848 C 71.730 151.603, 65.812 145.350, 58.333 137.951 C 50.855 130.553, 45.097 125.175, 45.538 126 M 76.686 161.805 C 75.209 163.348, 74 165.597, 74 166.805 C 74 168.432, 74.598 169, 76.313 169 C 77.585 169, 79.840 167.733, 81.323 166.184 C 84.021 163.368, 84.021 163.368, 81.697 161.185 C 79.373 159.002, 79.373 159.002, 76.686 161.805" stroke="none" fill="#b10909" fill-rule="evenodd"/><path d="M 232.577 45.876 C 232.242 46.418, 232.537 47.219, 233.234 47.655 C 233.930 48.091, 236.525 48.687, 239 48.980 C 243.500 49.512, 243.500 49.512, 243.262 53.414 C 243.131 55.560, 242.344 58.352, 241.514 59.619 C 240.684 60.885, 237.717 68.577, 234.921 76.711 C 232.124 84.845, 229.311 93.303, 228.668 95.507 C 228.026 97.711, 226.496 101.209, 225.270 103.281 C 223.475 106.312, 222.596 106.943, 220.770 106.511 C 219.521 106.215, 217.150 106.349, 215.500 106.809 C 213.850 107.268, 212.353 108.405, 212.174 109.336 C 211.872 110.901, 214.290 111.008, 244.582 110.764 C 277.315 110.500, 277.315 110.500, 279.658 103.555 C 280.946 99.736, 282 96.023, 282 95.305 C 282 94.587, 281.514 94, 280.921 94 C 280.327 94, 277.289 96.647, 274.171 99.882 C 269.136 105.105, 267.940 105.837, 263.500 106.412 C 260.750 106.768, 253.598 106.831, 247.607 106.553 C 241.617 106.276, 236.489 105.823, 236.213 105.547 C 235.938 105.271, 237.623 99.748, 239.959 93.273 C 242.295 86.798, 244.764 80.912, 245.446 80.193 C 246.446 79.139, 247.991 79.114, 253.461 80.067 C 260.238 81.247, 260.238 81.247, 259.669 85.396 C 259.357 87.678, 259.512 90.210, 260.014 91.022 C 260.816 92.319, 261.117 92.311, 262.471 90.957 C 263.320 90.108, 265.816 84.258, 268.017 77.957 C 270.218 71.656, 271.807 65.945, 271.547 65.267 C 271.288 64.589, 270.469 64.266, 269.728 64.551 C 268.987 64.835, 267.094 67.270, 265.523 69.961 C 263.951 72.652, 261.728 75.106, 260.582 75.414 C 259.437 75.721, 256.123 75.979, 253.219 75.986 C 249.726 75.995, 247.764 75.548, 247.425 74.665 C 247.143 73.931, 248.022 69.993, 249.377 65.915 C 250.733 61.837, 252.788 56.587, 253.944 54.250 C 256.047 50, 256.047 50, 262.898 50 C 266.667 50, 271.176 50.285, 272.918 50.634 C 275.011 51.052, 276.581 52.224, 277.543 54.084 C 278.345 55.633, 279 58.498, 279 60.450 C 279 62.784, 279.468 64, 280.366 64 C 281.122 64, 282.658 61.432, 283.806 58.250 C 284.946 55.087, 286.179 51.267, 286.546 49.759 C 287.006 47.867, 286.792 46.885, 285.856 46.586 C 285.110 46.348, 272.954 45.869, 258.843 45.522 C 242.366 45.116, 232.968 45.243, 232.577 45.876 M 420.748 64.081 C 419.784 64.643, 418.141 66.766, 417.096 68.801 C 415.416 72.072, 414.763 72.500, 411.442 72.500 C 409.256 72.500, 407.501 73.043, 407.244 73.799 C 406.986 74.555, 408.098 75.588, 409.900 76.268 C 411.605 76.912, 413 77.929, 413 78.528 C 413 79.128, 410.496 85.797, 407.435 93.350 C 404.374 100.903, 402.016 107.851, 402.195 108.791 C 402.374 109.731, 403.571 110.649, 404.855 110.832 C 406.139 111.015, 408.610 110.607, 410.345 109.927 C 412.080 109.247, 415.413 106.866, 417.750 104.637 C 420.087 102.408, 422 99.757, 422 98.746 C 422 97.214, 421.209 97.513, 417.250 100.541 C 413.716 103.243, 412.422 103.793, 412.196 102.689 C 412.030 101.873, 412.795 99.247, 413.898 96.853 C 415 94.459, 417.232 89.125, 418.858 85 C 421.813 77.500, 421.813 77.500, 426.046 77.833 C 428.754 78.046, 430.569 77.698, 431.082 76.867 C 431.524 76.152, 431.406 74.989, 430.820 74.284 C 430.234 73.578, 428.535 73, 427.044 73 C 425.553 73, 424.051 72.718, 423.707 72.373 C 423.362 72.028, 423.769 70.413, 424.612 68.783 C 425.455 67.153, 425.901 65.185, 425.604 64.410 C 425.306 63.634, 424.486 63.014, 423.781 63.030 C 423.077 63.047, 421.711 63.520, 420.748 64.081 M 439.445 69.959 C 438.315 70.417, 435.953 72.429, 434.195 74.430 C 432.438 76.432, 431 79.179, 431 80.535 C 431 81.891, 431.255 83, 431.567 83 C 431.878 83, 433.678 81.822, 435.567 80.381 C 437.872 78.623, 439.004 78.212, 439.011 79.131 C 439.018 79.884, 437.162 86.210, 434.888 93.189 C 432.130 101.651, 430.967 106.731, 431.395 108.439 C 431.873 110.343, 432.687 111, 434.570 111 C 436.553 111, 437.439 110.187, 438.656 107.250 C 439.511 105.188, 442.824 98.100, 446.017 91.500 C 449.211 84.900, 452.984 78.413, 454.402 77.086 C 456.821 74.819, 457.092 74.773, 458.818 76.336 C 459.830 77.251, 461.582 78, 462.712 78 C 463.957 78, 464.983 77.174, 465.315 75.904 C 465.617 74.750, 465.631 73.203, 465.348 72.465 C 465.065 71.726, 463.613 70.854, 462.121 70.527 C 460.600 70.192, 457.821 70.595, 455.790 71.443 C 453.799 72.275, 450.616 74.878, 448.717 77.228 C 446.818 79.578, 444.718 82.551, 444.051 83.836 C 443.384 85.120, 442.631 85.964, 442.378 85.712 C 442.126 85.459, 442.646 82.057, 443.534 78.151 C 444.422 74.245, 444.864 70.589, 444.515 70.025 C 444.167 69.461, 443.346 69.029, 442.691 69.063 C 442.036 69.098, 440.575 69.501, 439.445 69.959 M 368.776 72.891 C 366.894 74.544, 364.752 77.722, 364.016 79.953 C 363.279 82.184, 363.001 84.335, 363.398 84.732 C 363.795 85.128, 365.651 83.664, 367.522 81.477 C 370.177 78.374, 370.933 77.919, 370.962 79.408 C 370.983 80.457, 368.688 87.282, 365.861 94.575 C 363.035 101.868, 360.996 108.547, 361.330 109.418 C 361.664 110.288, 362.796 111, 363.846 111 C 364.896 111, 366.276 110.372, 366.913 109.605 C 367.549 108.838, 370.090 104.062, 372.557 98.991 C 375.025 93.920, 378.675 87.316, 380.667 84.314 C 382.660 81.312, 385.364 78.153, 386.676 77.293 C 387.989 76.433, 389.243 75.910, 389.464 76.131 C 389.686 76.352, 388.587 80.351, 387.023 85.017 C 385.460 89.682, 383.208 96.805, 382.020 100.845 C 380.831 104.885, 380.101 108.822, 380.398 109.595 C 380.705 110.396, 382.310 111, 384.129 111 C 386.686 111, 388.480 109.840, 393.160 105.160 C 396.372 101.948, 399 98.482, 399 97.457 C 399 95.963, 398.249 96.328, 395.208 99.297 C 393.122 101.334, 390.842 103, 390.140 103 C 389.293 103, 389.082 102.245, 389.511 100.750 C 389.867 99.513, 391.239 95.575, 392.561 92 C 393.882 88.425, 395.871 82.722, 396.980 79.328 C 398.089 75.933, 398.724 72.445, 398.391 71.578 C 398.016 70.601, 396.581 70, 394.621 70 C 392.529 70, 390.126 71.096, 387.534 73.232 C 385.377 75.010, 381.816 78.415, 379.619 80.797 C 377.422 83.180, 375.044 85.888, 374.334 86.815 C 373.458 87.959, 373.582 86.733, 374.719 83 C 375.641 79.975, 376.419 75.925, 376.448 74 C 376.490 71.160, 376.095 70.442, 374.349 70.193 C 373.060 70.010, 370.827 71.091, 368.776 72.891 M 299.595 71.947 C 295.522 72.511, 294.126 73.293, 291.358 76.563 C 289.525 78.728, 287.527 81.986, 286.918 83.803 C 286.308 85.620, 286.086 88.207, 286.424 89.553 C 286.866 91.315, 287.723 92, 289.484 92 C 290.975 92, 292.386 91.148, 293.098 89.817 C 294.087 87.969, 293.939 87.369, 292.133 85.907 C 290.960 84.957, 290 83.715, 290 83.146 C 290 82.578, 291 81.413, 292.223 80.557 C 293.472 79.682, 296.511 79, 299.163 79 C 301.759 79, 304.150 79.433, 304.477 79.963 C 304.804 80.492, 303.883 83.271, 302.429 86.139 C 300.976 89.007, 299.123 93.591, 298.310 96.326 C 297.470 99.156, 297.101 102.725, 297.454 104.606 C 297.797 106.436, 299.235 108.826, 300.672 109.957 C 302.206 111.163, 304.750 111.997, 306.885 111.993 C 308.873 111.990, 311.776 111.145, 313.336 110.117 C 314.896 109.089, 317.500 106.636, 319.123 104.667 C 320.746 102.698, 323.037 98.930, 324.214 96.293 C 325.805 92.730, 326.364 89.447, 326.395 83.500 C 326.419 78.874, 325.908 74.551, 325.183 73.250 C 324.415 71.872, 322.982 71, 321.484 71 C 319.702 71, 318.866 71.686, 318.404 73.527 C 317.944 75.358, 318.543 77.216, 320.580 80.277 C 322.687 83.442, 323.347 85.566, 323.217 88.752 C 323.121 91.091, 322.263 94.195, 321.310 95.649 C 320.357 97.103, 317.805 99.577, 315.639 101.147 C 313.472 102.716, 310.712 104, 309.505 104 C 308.298 104, 306.565 103.177, 305.655 102.171 C 304.745 101.165, 304 98.967, 304 97.286 C 304 95.605, 304.733 91.815, 305.629 88.865 C 306.525 85.914, 308.100 80.995, 309.129 77.933 C 310.158 74.872, 311 72.059, 311 71.683 C 311 71.308, 309.538 71.060, 307.750 71.134 C 305.962 71.207, 302.293 71.573, 299.595 71.947 M 473.935 74.324 C 471.064 76.516, 468.389 79.851, 466.479 83.621 C 464.115 88.287, 463.427 91.094, 463.145 97.222 C 462.802 104.693, 462.889 105.043, 465.818 107.972 C 467.931 110.085, 469.816 111, 472.055 111 C 473.820 111, 476.749 110.082, 478.564 108.961 C 480.379 107.839, 483.223 104.869, 484.885 102.360 C 486.547 99.851, 488.654 95.547, 489.568 92.795 C 490.641 89.565, 491.070 85.863, 490.779 82.354 C 490.506 79.057, 489.536 75.851, 488.314 74.209 C 486.822 72.202, 485.277 71.423, 482.356 71.203 C 479.146 70.960, 477.579 71.541, 473.935 74.324 M 346.500 73.397 C 344.850 74.123, 341.388 76.984, 338.807 79.755 C 336.225 82.526, 333.354 86.527, 332.426 88.647 C 331.473 90.822, 330.686 95.349, 330.619 99.043 C 330.533 103.778, 330.990 106.334, 332.273 108.293 C 333.600 110.319, 334.858 110.996, 337.273 110.984 C 339.048 110.975, 342.257 109.962, 344.404 108.734 C 346.551 107.505, 348.785 105.734, 349.369 104.798 C 349.952 103.862, 350.161 102.827, 349.832 102.499 C 349.504 102.171, 347.649 102.793, 345.711 103.882 C 343.739 104.989, 341.264 105.620, 340.093 105.314 C 338.347 104.857, 338 103.995, 338 100.106 C 338 97.514, 338.688 94.462, 339.550 93.232 C 340.730 91.547, 342.008 91.054, 344.900 91.167 C 347.274 91.260, 350.330 90.413, 353.048 88.908 C 355.440 87.584, 358.257 85.024, 359.308 83.221 C 360.955 80.394, 361.046 79.526, 359.972 76.932 C 359.287 75.278, 357.917 73.491, 356.929 72.962 C 355.940 72.433, 353.864 72.018, 352.316 72.039 C 350.767 72.061, 348.150 72.672, 346.500 73.397 M 478.652 79.290 C 476.368 81.746, 472.806 87.073, 470.735 91.128 C 468.322 95.852, 466.975 99.858, 466.985 102.281 C 466.994 104.617, 467.544 106.271, 468.422 106.608 C 469.204 106.908, 470.758 106.665, 471.875 106.067 C 472.992 105.469, 475.455 102.622, 477.347 99.740 C 479.239 96.858, 481.979 92.190, 483.437 89.366 C 484.895 86.543, 486.345 82.649, 486.659 80.713 C 487.135 77.779, 486.862 76.997, 485.017 76.009 C 483.027 74.944, 482.384 75.276, 478.652 79.290 M 349.739 77.618 C 348.220 78.420, 345.825 80.901, 344.416 83.132 C 343.008 85.363, 342.099 87.432, 342.396 87.729 C 342.693 88.026, 344.312 87.699, 345.994 87.003 C 347.676 86.306, 349.971 84.445, 351.095 82.866 C 352.219 81.288, 352.995 79.133, 352.819 78.078 C 352.524 76.306, 352.289 76.271, 349.739 77.618" stroke="none" fill="#040404" fill-rule="evenodd"/><path d="M 99.852 8.544 C 95.645 9.224, 89.570 10.760, 86.352 11.958 C 83.133 13.155, 77.800 15.649, 74.500 17.499 C 71.200 19.350, 65.800 23.041, 62.500 25.703 C 59.200 28.365, 53.666 34.334, 50.203 38.969 C 45.653 45.058, 43.988 48.102, 44.203 49.939 C 44.370 51.368, 45.237 52.623, 46.181 52.801 C 47.294 53.012, 49.012 51.326, 51.266 47.810 C 53.139 44.890, 57.025 39.928, 59.904 36.785 C 62.782 33.642, 67.357 29.440, 70.071 27.448 C 72.785 25.456, 77.592 22.581, 80.753 21.060 C 83.914 19.539, 88.750 17.567, 91.500 16.679 C 94.250 15.791, 100.023 14.639, 104.330 14.119 C 108.636 13.599, 112.344 12.990, 112.569 12.764 C 112.795 12.539, 111.746 11.219, 110.240 9.831 C 107.527 7.332, 107.426 7.319, 99.852 8.544 M 104.349 25.318 C 100.098 29.569, 97.945 32.481, 98.172 33.672 C 98.364 34.677, 99.416 35.628, 100.510 35.784 C 101.849 35.975, 104.623 33.925, 108.986 29.520 C 114.315 24.138, 115.283 22.672, 114.414 21.295 C 113.833 20.373, 112.799 19.433, 112.116 19.205 C 111.433 18.978, 107.938 21.728, 104.349 25.318 M 64.705 44.790 C 62.154 47.403, 61.139 49.197, 61.572 50.328 C 61.925 51.247, 62.991 52, 63.940 52 C 64.890 52, 67.332 50.334, 69.368 48.299 C 71.404 46.263, 72.936 43.901, 72.774 43.049 C 72.612 42.197, 71.580 41.370, 70.480 41.212 C 69.228 41.032, 67.069 42.369, 64.705 44.790 M 88.500 42.839 C 86.850 43.846, 72.096 58.083, 55.714 74.477 C 39.331 90.870, 26.083 104.749, 26.273 105.320 C 26.463 105.890, 27.379 106.837, 28.308 107.423 C 29.733 108.322, 34.142 104.346, 56.499 82.001 C 83 55.514, 83 55.514, 83 89.535 C 83 118.745, 83.221 123.870, 84.561 125.783 C 85.419 127.009, 87.422 128.684, 89.011 129.506 C 91.266 130.672, 95.920 131, 110.191 131 C 128.481 131, 128.481 131, 109.195 150.304 C 90.652 168.866, 89.982 169.674, 91.784 171.304 C 92.814 172.237, 93.960 173, 94.330 173 C 94.700 173, 105.558 162.420, 118.458 149.489 C 137.816 130.085, 142.029 125.363, 142.575 122.454 C 142.938 120.515, 142.951 117.504, 142.603 115.763 C 142.254 114.021, 140.998 111.562, 139.810 110.298 C 137.746 108.101, 136.999 108, 122.826 108 C 108 108, 108 108, 108 102.500 C 108 97, 108 97, 114.923 97 C 120.893 97, 122.266 96.647, 124.889 94.440 C 126.714 92.904, 128.190 90.505, 128.576 88.446 C 128.930 86.558, 128.927 83.847, 128.570 82.421 C 128.212 80.996, 126.747 78.743, 125.314 77.415 C 123.050 75.317, 121.743 75, 115.354 75 C 108 75, 108 75, 108 69.500 C 108 64, 108 64, 122.597 64 C 137.194 64, 137.194 64, 144.108 57.326 C 151.021 50.651, 151.021 50.651, 148.838 48.327 C 146.880 46.243, 146.483 46.158, 144.998 47.501 C 144.088 48.326, 143.089 49, 142.780 49 C 142.470 49, 141.937 47.883, 141.594 46.518 C 141.251 45.153, 139.650 43.353, 138.035 42.518 C 135.673 41.296, 130.843 41.001, 113.300 41.004 C 93.931 41.007, 91.165 41.212, 88.500 42.839 M 90.750 48.080 C 89.134 49.021, 89 51.883, 89 85.395 C 89 119.448, 89.114 121.794, 90.851 123.365 C 92.482 124.841, 95.244 125.008, 114.078 124.770 C 135.453 124.500, 135.453 124.500, 136.370 121.890 C 136.875 120.455, 136.989 118.093, 136.625 116.640 C 135.962 114, 135.962 114, 120.103 114 C 107.743 114, 103.989 113.692, 103.085 112.602 C 102.331 111.694, 102.026 107.758, 102.213 101.352 C 102.500 91.500, 102.500 91.500, 111.980 91 C 121.283 90.509, 121.477 90.448, 122.441 87.697 C 123.106 85.800, 123.079 84.346, 122.356 83.197 C 121.519 81.866, 119.491 81.437, 112.944 81.206 C 108.355 81.045, 104.015 80.427, 103.300 79.834 C 102.406 79.092, 102 75.887, 102 69.578 C 102 63.773, 102.441 59.959, 103.200 59.200 C 104.027 58.373, 109.089 58, 119.500 58 C 129.911 58, 134.973 57.627, 135.800 56.800 C 136.460 56.140, 137 54.535, 137 53.234 C 137 51.933, 136.534 49.998, 135.965 48.934 C 134.990 47.114, 133.683 47.002, 113.715 47.030 C 101.174 47.048, 91.784 47.478, 90.750 48.080 M 147.196 66.298 C 145.438 68.111, 144 70.313, 144 71.191 C 144 72.068, 144.762 73.078, 145.693 73.436 C 146.859 73.883, 148.614 72.856, 151.335 70.135 C 153.915 67.555, 155.073 65.633, 154.674 64.593 C 154.338 63.717, 153.237 63, 152.228 63 C 151.218 63, 148.954 64.484, 147.196 66.298 M 32.598 76.943 C 22.531 87.136, 20.917 89.195, 21.985 90.482 C 22.678 91.317, 23.862 92, 24.617 92 C 25.372 92, 31.190 86.775, 37.547 80.389 C 44.594 73.309, 48.982 68.138, 48.792 67.139 C 48.620 66.238, 47.577 65.370, 46.475 65.211 C 45.045 65.005, 41.064 68.371, 32.598 76.943 M 60.116 88.383 C 55.057 93.487, 53.925 95.189, 54.463 96.883 C 54.832 98.047, 55.679 99, 56.345 99 C 57.010 99, 60.017 96.616, 63.027 93.703 C 66.037 90.789, 69.118 87.639, 69.872 86.703 C 70.973 85.337, 70.998 84.703, 70 83.500 C 69.315 82.675, 68.235 82, 67.599 82 C 66.963 82, 63.596 84.872, 60.116 88.383 M 185 90.356 C 185 93.310, 184.559 98.054, 184.019 100.899 C 183.480 103.744, 181.696 109.424, 180.055 113.522 C 178.414 117.620, 175.593 123.165, 173.786 125.844 C 171.979 128.523, 168.850 132.539, 166.833 134.769 C 164.816 136.999, 160.766 140.735, 157.833 143.071 C 154.900 145.408, 148.435 149.231, 143.467 151.566 C 138.499 153.902, 132.289 156.134, 129.668 156.527 C 127.046 156.920, 124.248 157.895, 123.450 158.692 C 122.653 159.490, 122 160.506, 122 160.949 C 122 161.392, 122.585 162.240, 123.299 162.834 C 124.242 163.616, 126.695 163.388, 132.244 162.002 C 136.448 160.951, 142.765 158.746, 146.281 157.102 C 149.797 155.459, 156.235 151.454, 160.587 148.203 C 164.939 144.951, 169.400 141.212, 170.500 139.892 C 171.600 138.573, 173.886 135.695, 175.580 133.497 C 177.273 131.299, 180.104 126.939, 181.869 123.810 C 183.634 120.680, 186.159 114.944, 187.478 111.064 C 188.798 107.183, 190.176 100.969, 190.541 97.254 C 191.192 90.611, 191.152 90.455, 188.102 87.742 C 185 84.985, 185 84.985, 185 90.356 M 160.608 98.886 C 152.250 107.270, 148.897 111.289, 149.326 112.408 C 149.662 113.283, 150.746 114, 151.735 114 C 152.724 114, 158.632 108.886, 164.866 102.635 C 172.755 94.723, 176.089 90.700, 175.838 89.396 C 175.639 88.366, 174.807 87.395, 173.989 87.240 C 173.170 87.084, 167.148 92.324, 160.608 98.886 M 40.667 111.667 C 40.300 112.033, 40 113.016, 40 113.851 C 40 114.686, 40.907 117.241, 42.015 119.531 C 43.192 121.963, 49.859 129.472, 58.054 137.596 C 65.767 145.243, 72.510 151.650, 73.039 151.833 C 73.567 152.017, 73.996 151.117, 73.992 149.833 C 73.986 148.185, 72.224 146.097, 67.989 142.720 C 64.692 140.091, 59.633 135.060, 56.747 131.541 C 53.861 128.022, 50.503 123.198, 49.284 120.821 C 48.065 118.445, 46.614 115.263, 46.059 113.750 C 45.453 112.099, 44.307 111, 43.191 111 C 42.169 111, 41.033 111.300, 40.667 111.667 M 153.199 126.371 C 149.028 130.715, 147.197 133.349, 147.606 134.415 C 147.940 135.287, 149.188 136, 150.378 136 C 151.714 136, 154.765 133.699, 158.343 129.993 C 161.854 126.357, 164.013 123.297, 163.812 122.243 C 163.629 121.284, 162.562 120.368, 161.440 120.207 C 160.027 120.003, 157.495 121.898, 153.199 126.371 M 82.521 155.978 C 79.591 159.036, 79.591 159.036, 81.778 161.222 C 83.964 163.409, 83.964 163.409, 87.022 160.479 C 88.863 158.715, 89.965 156.744, 89.790 155.525 C 89.626 154.381, 88.619 153.374, 87.475 153.210 C 86.256 153.035, 84.285 154.137, 82.521 155.978" stroke="none" fill="#3e4fb2" fill-rule="evenodd"/></svg>